<svg xmlns="http://www.w3.org/2000/svg" viewBox="0 0 943 665"><title>FoggyConsole</title><path d="M1073.5,317.5h-847a48,48,0,0,0-48,48v569a48,48,0,0,0,48,48h847a48,48,0,0,0,48-48v-569A48,48,0,0,0,1073.5,317.5Zm9,618a8,8,0,0,1-8,8h-849a8,8,0,0,1-8-8v-499H783a19.5,19.5,0,0,0,0-39H217.5v-33a8,8,0,0,1,8-8h849a8,8,0,0,1,8,8Z" transform="translate(-178.5 -317.5)"/><rect x="655.5" y="80" width="56" height="39" rx="19.5"/><rect x="737" y="80" width="56" height="39" rx="19.5"/><rect x="818.5" y="80" width="56" height="39" rx="19.5"/><rect x="377.5" y="396.5" width="171" height="40" rx="20"/><rect x="337.5" y="672" width="205" height="40" rx="20" transform="translate(-465.6 -4.8) rotate(-30)"/><rect x="337.5" y="590" width="205" height="40" rx="20" transform="translate(185.4 -455.8) rotate(30)"/><rect x="740.5" y="672" width="205" height="40" rx="20" transform="translate(1048.6 1395.3) rotate(-150)"/><rect x="740.5" y="590" width="205" height="40" rx="20" transform="translate(1699.6 399.3) rotate(150)"/></svg>